<svg width="339" height="154" viewBox="0 0 339 154" fill="none" xmlns="http://www.w3.org/2000/svg">
<g filter="url(#filter0_dii_1_637)">
<path d="M7 68.509C7 41.8382 7 28.5028 13.105 18.7603C16.3134 13.6401 20.6401 9.31341 25.7603 6.10496C35.5028 0 48.8382 0 75.509 0H263.559C290.165 0 303.468 0 313.194 6.07655C318.349 9.2973 322.703 13.6506 325.923 18.8057C332 28.5317 332 41.8347 332 68.4407V68.4407C332 92.8193 332 105.009 326.475 114.398C323.59 119.303 319.48 123.732 314.805 126.976C305.854 133.188 293.994 134.077 270.272 135.855C196.166 141.411 139.326 141.32 68.6414 135.953C44.9392 134.153 33.0881 133.253 24.1328 127.013C19.4987 123.785 15.4125 119.376 12.5438 114.511C7 105.109 7 92.909 7 68.509V68.509Z" fill="url(#paint0_linear_1_637)" shape-rendering="crispEdges"/>
</g>
<defs>
<filter id="filter0_dii_1_637" x="0" y="-3" width="339" height="157" filterUnits="userSpaceOnUse" color-interpolation-filters="sRGB">
<feFlood flood-opacity="0" result="BackgroundImageFix"/>
<feColorMatrix in="SourceAlpha" type="matrix" values="0 0 0 0 0 0 0 0 0 0 0 0 0 0 0 0 0 0 127 0" result="hardAlpha"/>
<feOffset dy="7"/>
<feGaussianBlur stdDeviation="3.5"/>
<feComposite in2="hardAlpha" operator="out"/>
<feColorMatrix type="matrix" values="0 0 0 0 0.8 0 0 0 0 0.929412 0 0 0 0 0.980392 0 0 0 1 0"/>
<feBlend mode="normal" in2="BackgroundImageFix" result="effect1_dropShadow_1_637"/>
<feBlend mode="normal" in="SourceGraphic" in2="effect1_dropShadow_1_637" result="shape"/>
<feColorMatrix in="SourceAlpha" type="matrix" values="0 0 0 0 0 0 0 0 0 0 0 0 0 0 0 0 0 0 127 0" result="hardAlpha"/>
<feOffset dx="3" dy="1"/>
<feGaussianBlur stdDeviation="7.5"/>
<feComposite in2="hardAlpha" operator="arithmetic" k2="-1" k3="1"/>
<feColorMatrix type="matrix" values="0 0 0 0 1 0 0 0 0 1 0 0 0 0 1 0 0 0 0.5 0"/>
<feBlend mode="overlay" in2="shape" result="effect2_innerShadow_1_637"/>
<feColorMatrix in="SourceAlpha" type="matrix" values="0 0 0 0 0 0 0 0 0 0 0 0 0 0 0 0 0 0 127 0" result="hardAlpha"/>
<feOffset dy="-3"/>
<feGaussianBlur stdDeviation="5"/>
<feComposite in2="hardAlpha" operator="arithmetic" k2="-1" k3="1"/>
<feColorMatrix type="matrix" values="0 0 0 0 0 0 0 0 0 0 0 0 0 0 0 0 0 0 0.37 0"/>
<feBlend mode="overlay" in2="effect2_innerShadow_1_637" result="effect3_innerShadow_1_637"/>
</filter>
<linearGradient id="paint0_linear_1_637" x1="332" y1="140" x2="230.263" y2="-96.1749" gradientUnits="userSpaceOnUse">
<stop stop-color="#29B029" stop-opacity="0.4"/>
<stop offset="1" stop-color="#29B029"/>
</linearGradient>
</defs>
</svg>
