<svg width="325" height="140" viewBox="0 0 325 140" fill="none" xmlns="http://www.w3.org/2000/svg">
<path d="M68.509 0.5H256.559C269.872 0.5 279.821 0.500544 287.659 1.25725C295.489 2.01323 301.159 3.52024 305.929 6.50059C311.02 9.68108 315.319 13.9799 318.499 19.0706C321.48 23.8409 322.987 29.5113 323.743 37.3413C324.499 45.1789 324.5 55.1279 324.5 68.4407C324.5 80.6396 324.499 89.7538 323.812 96.9931C323.125 104.224 321.755 109.538 319.044 114.145C316.195 118.987 312.135 123.363 307.52 126.565C303.127 129.614 298.003 131.371 290.992 132.585C283.973 133.801 275.105 134.467 263.235 135.356C189.154 140.91 132.338 140.82 61.6793 135.454C49.8185 134.554 40.9585 133.88 33.943 132.656C26.9373 131.432 21.8142 129.666 17.4187 126.603C12.8435 123.415 8.80675 119.061 5.97447 114.257C3.25426 109.644 1.88007 104.324 1.19072 97.0869C0.500527 89.8408 0.5 80.7186 0.5 68.509C0.5 55.1637 0.500547 45.1905 1.2608 37.3347C2.0203 29.4865 3.53435 23.8042 6.52865 19.0258C9.69699 13.9696 13.9696 9.69699 19.0258 6.52865C23.8042 3.53435 29.4865 2.0203 37.3347 1.2608C45.1905 0.500547 55.1637 0.5 68.509 0.5Z" stroke="black"/>
</svg>
